<?xml version="1.0" encoding="UTF-8" standalone="no"?>
<!-- Created with Inkscape (http://www.inkscape.org/) -->

<svg
   width="79.331444mm"
   height="46.175652mm"
   viewBox="0 0 79.331444 46.175652"
   version="1.1"
   id="svg1"
   xml:space="preserve"
   inkscape:version="1.4.3 (0d15f75, 2025-12-25)"
   sodipodi:docname="logo.svg"
   xmlns:inkscape="http://www.inkscape.org/namespaces/inkscape"
   xmlns:sodipodi="http://sodipodi.sourceforge.net/DTD/sodipodi-0.dtd"
   xmlns="http://www.w3.org/2000/svg"
   xmlns:svg="http://www.w3.org/2000/svg"><sodipodi:namedview
     id="namedview1"
     pagecolor="#000000"
     bordercolor="#000000"
     borderopacity="0.24705882"
     inkscape:showpageshadow="2"
     inkscape:pageopacity="0.0"
     inkscape:pagecheckerboard="0"
     inkscape:deskcolor="#d1d1d1"
     inkscape:document-units="mm"
     inkscape:zoom="0.47185006"
     inkscape:cx="198.15617"
     inkscape:cy="152.59085"
     inkscape:window-width="1376"
     inkscape:window-height="843"
     inkscape:window-x="0"
     inkscape:window-y="34"
     inkscape:window-maximized="0"
     inkscape:current-layer="g4"
     showguides="true" /><defs
     id="defs1" /><g
     inkscape:label="Livello 1"
     inkscape:groupmode="layer"
     id="layer1"
     transform="translate(-67.29513,-53.074922)"><g
       id="g3"
       transform="translate(-11.662639,15.778864)"><g
         id="g2"
         transform="translate(-204.59649,41.144749)"><g
           id="g4"
           transform="translate(6.2399109,-42.29273)"><rect
             style="fill:#000000;fill-opacity:1;stroke-width:0.264583"
             id="rect4"
             width="207.23943"
             height="125.99205"
             x="212.52734"
             y="2.0392652"
             ry="0" /><g
             id="g1"
             transform="matrix(0.48363385,0,0,0.48363385,163.53506,32.054792)"><path
               style="fill:#ffffff;stroke-width:1.38891"
               d="m 264.54041,104.35916 c -14.79599,-0.22484 -19.05151,-0.34359 -18.86855,-0.52655 0.12628,-0.12625 9.45861,-0.29067 19.38893,-0.34155 l 7.05405,-0.0361 v 0.46256 0.46257 l -2.83319,0.004 c -1.55825,0.003 -3.69181,-0.008 -4.74124,-0.025 z m 96.72709,-0.0685 c -0.0381,-0.0992 -0.0522,-0.31915 -0.0317,-0.48893 l 0.0375,-0.30868 5.26164,0.0125 c 7.68482,0.0181 20.38913,0.22875 20.50034,0.33996 0.15196,0.15197 -7.75108,0.36531 -20.23743,0.54633 -4.88616,0.0708 -5.46858,0.0601 -5.53045,-0.10111 z M 317.75965,72.418049 c -1.41381,-0.48836 -3.00013,-1.99541 -3.80099,-3.61107 -0.26425,-0.53312 -0.62852,-1.41164 -0.80948,-1.952259 -0.31938,-0.954211 -0.32893,-1.05224 -0.32644,-3.353561 0.003,-2.829079 0.16824,-3.66026 1.09313,-5.50113 1.04263,-2.0752 2.37566,-3.32365 4.28157,-4.00989 0.46677,-0.16807 0.95914,-0.23272 1.85025,-0.24294 1.16106,-0.0139 1.25634,0.004 2.17633,0.41056 1.54002,0.67948 2.22653,1.31512 3.29056,3.04668 2.49236,4.056 2.39559,9.399791 -0.22854,12.62157 -0.86567,1.06281 -1.10287,1.307411 -1.26789,1.307411 -0.0849,0 -0.15434,0.0717 -0.15434,0.15939 0,0.0876 -0.52287,0.42591 -1.16195,0.75165 l -1.16194,0.59227 -1.58451,-0.004 c -1.22635,-0.003 -1.72268,-0.0515 -2.19576,-0.21491 z m 2.25357,-0.40281 c 0.0125,-0.0125 -0.0289,-1.00958 -0.0926,-2.21576 -0.13126,-2.48274 -0.10417,-4.05887 0.0693,-4.01223 0.0636,0.0171 0.15549,0.17322 0.2042,0.34692 0.1985,0.70794 0.78671,3.66472 0.96527,4.85227 0.11597,0.77111 0.26119,0.90149 0.80606,0.72355 1.05928,-0.3459 2.72944,-1.69697 3.18429,-2.5759 0.22591,-0.43652 0.22588,-0.43939 -0.007,-0.76668 -0.12862,-0.18069 -0.98939,-0.93607 -1.91273,-1.67862 l -1.67879,-1.3501 v -0.5181 c 0,-0.631239 -0.14565,-0.689939 2.24234,0.90371 0.94709,0.632041 1.85609,1.15795 2.02002,1.168701 0.26403,0.0174 0.32737,-0.0596 0.55505,-0.674301 0.2276,-0.61444 0.2578,-0.9227 0.26388,-2.693779 0.007,-2.09101 -0.17618,-3.328651 -0.53761,-3.628611 -0.20443,-0.16966 -0.60151,0.0372 -2.85656,1.48795 -0.82113,0.52827 -1.53483,0.960501 -1.58598,0.960501 -0.0511,0 -0.14392,-0.0951 -0.20617,-0.21145 -0.18735,-0.350071 0.19498,-0.80981 1.94843,-2.343021 0.98988,-0.86553 1.6625,-1.54104 1.70566,-1.71298 0.15474,-0.61657 -0.86985,-1.89626 -2.09143,-2.612139 -0.75483,-0.44237 -1.95461,-0.868311 -2.44583,-0.868311 -0.39896,0 -0.39949,7.21e-4 -0.40318,0.549301 -0.006,0.89259 -0.41861,5.42096 -0.50696,5.563899 -0.1368,0.221331 -0.40706,0.14615 -0.46296,-0.12876 -0.0292,-0.143099 -0.14118,-1.43105 -0.24907,-2.862099 -0.10792,-1.43103 -0.24326,-2.69343 -0.30084,-2.80531 -0.12223,-0.23761 -0.46461,-0.1864 -1.19401,0.1786 -1.07947,0.54019 -2.53844,2.09248 -3.16731,3.36992 -0.58286,1.18395 -0.57541,1.19894 0.99906,2.0098 2.10317,1.08312 2.32212,1.21726 2.45185,1.50199 0.15077,0.3309 0.1572,0.71754 0.0125,0.71754 -0.06,0 -0.95273,-0.2602 -1.98374,-0.5782 -1.03101,-0.31802 -1.96503,-0.57821 -2.07561,-0.57821 -0.3127,0 -0.35577,0.274189 -0.33172,2.11137 0.0281,2.1433 0.18138,2.873659 0.92831,4.42231 0.40859,0.84713 0.59639,1.09857 0.82054,1.09857 0.0946,0 0.55346,-0.5594 1.01978,-1.24313 0.46633,-0.68372 0.98167,-1.40715 1.1452,-1.60761 0.16353,-0.20046 0.47009,-0.57857 0.68123,-0.84022 0.21115,-0.26167 0.43232,-0.44584 0.49147,-0.40927 0.33755,0.208609 -0.21882,1.62329 -1.56704,3.98459 -0.61394,1.07527 -0.64733,1.4214 -0.18329,1.900149 0.42357,0.437021 1.45083,0.99049 2.07314,1.11697 0.34499,0.0701 1.16213,0.035 1.25362,-0.0537 z m -0.92725,-7.50222 c -0.14155,-0.143109 -0.3288,-0.478789 -0.41611,-0.745959 -0.27089,-0.82891 0.15549,-1.84258 0.85745,-2.03846 0.32039,-0.0894 1.0043,0.2676 1.18039,0.61616 0.21784,0.431179 0.18411,1.3845 -0.0654,1.84978 -0.32086,0.59829 -1.11817,0.76143 -1.55631,0.318479 z m -24.01656,6.75744 c 0,-0.141469 2.06856,-0.237989 6.90344,-0.32213 2.54716,-0.0443 4.24923,-0.0294 4.42357,0.0387 0.23008,0.09 0.0996,0.125699 -0.69385,0.189989 -1.56113,0.126531 -10.63316,0.206231 -10.63316,0.0935 z m -11.96876,-1.18685 c -0.63601,-0.0508 -1.98901,-0.1726 -3.00664,-0.2707 -1.01763,-0.0981 -2.89101,-0.2321 -4.16305,-0.29778 -1.27204,-0.0657 -2.62503,-0.14603 -3.00664,-0.17853 -0.38161,-0.0325 -2.33304,-0.13612 -4.33651,-0.23038 -2.00346,-0.0942 -4.2411,-0.22181 -4.97253,-0.28359 -0.73142,-0.0618 -2.15325,-0.16717 -3.15961,-0.23424 -1.00637,-0.0671 -2.17722,-0.20286 -2.60191,-0.30178 -0.58941,-0.13723 -1.06704,-0.16077 -2.01818,-0.0992 -1.37374,0.0889 -1.79591,-0.006 -2.10163,-0.47261 -0.14963,-0.228359 -0.15756,-0.37215 -0.0485,-0.880449 0.0717,-0.33415 0.22705,-0.739451 0.34532,-0.90069 0.19076,-0.26007 0.21606,-0.539101 0.22418,-2.47233 0.005,-1.19853 0.036,-2.24902 0.0687,-2.33441 0.10446,-0.27222 0.37227,-0.05 0.72538,0.60196 0.55821,1.03062 0.74981,1.738 0.73504,2.71375 -0.0156,1.03511 -0.17592,1.41058 -0.84743,1.98536 -0.37992,0.3252 -0.4668,0.47045 -0.43668,0.7301 l 0.0376,0.324129 2.48626,0.0125 c 1.40104,0.007 3.26863,0.0961 4.27869,0.203149 2.31961,0.245901 5.87289,0.50834 9.71377,0.71746 6.60254,0.359481 8.47617,0.52362 10.63889,0.93208 4.25399,0.80342 4.61844,0.98885 1.4455,0.73554 z m 5.19091,-1.38958 c -0.3251,-0.0415 -0.94955,-0.18074 -1.38767,-0.309299 -0.43813,-0.12861 -1.46008,-0.40295 -2.27101,-0.60973 -0.81092,-0.20679 -1.47441,-0.42038 -1.47441,-0.47466 0,-0.12583 0.01,-0.12556 2.48626,0.074 2.44705,0.19716 9.1192,0.22589 13.05159,0.0562 2.24538,-0.0969 2.72416,-0.14954 3.17587,-0.34937 0.86975,-0.38472 0.95811,-0.50745 0.76318,-1.05992 -0.18063,-0.51196 -0.86114,-1.50924 -1.78126,-2.61043 -0.44433,-0.53175 -0.78918,-0.80712 -1.36641,-1.09104 l -0.7721,-0.37977 -2.19892,0.006 c -1.2094,0.003 -3.62997,0.029 -5.37903,0.0578 -3.27647,0.0538 -4.06593,-0.0467 -2.48123,-0.3156 3.22676,-0.54774 6.68344,-0.98393 8.27283,-1.0439 1.62631,-0.0614 1.88005,-0.044 2.60192,0.17782 0.43992,0.13514 0.96846,0.34996 1.1745,0.47726 0.54811,0.33858 1.43364,1.60419 2.22857,3.1851 1.40005,2.7843 1.0409,3.40497 -2.19847,3.79937 -2.60976,0.31774 -11.00342,0.59466 -12.44421,0.41056 z m 43.45855,-0.16602 c 0.0337,-0.0337 0.34162,-0.10805 0.68421,-0.16529 0.34259,-0.0572 1.53355,-0.26657 2.64658,-0.4653 4.35197,-0.77701 4.36358,-0.778859 9.71378,-1.54589 3.56804,-0.511529 7.71568,-1.01289 12.54696,-1.51663 2.51365,-0.26209 7.61151,-0.53344 7.73332,-0.41162 0.0596,0.0596 -0.0611,0.12889 -0.28838,0.16538 -0.45891,0.0739 -2.5178,0.35298 -3.91791,0.53123 -0.54062,0.0689 -2.44001,0.3261 -4.22087,0.57173 -4.24876,0.58602 -6.33971,0.85952 -9.7716,1.27812 -2.60039,0.31717 -4.23303,0.50467 -10.11851,1.162 -1.14484,0.12792 -2.47182,0.28086 -2.94882,0.33995 -0.9607,0.11903 -2.15414,0.151701 -2.05876,0.0563 z m 42.56372,-2.262559 c -1.07188,-0.20109 -1.86613,-0.86474 -2.57883,-2.15481 -0.73995,-1.33937 -1.34715,-3.89522 -1.23,-5.177261 0.14391,-1.57479 0.64265,-3.42248 1.24241,-4.60273 0.73928,-1.4548 1.3648,-2.14759 2.47736,-2.74381 0.63168,-0.3385 0.75747,-0.36567 1.41079,-0.30467 1.46684,0.13695 2.54479,1.06749 3.28055,2.83185 0.63376,1.51976 0.8019,2.41901 0.80189,4.288561 -4e-5,3.09357 -0.60032,5.10537 -1.94349,6.51354 -0.75771,0.79439 -1.19003,1.08046 -1.94939,1.28997 -0.64471,0.177859 -0.83895,0.1855 -1.51129,0.0593 z m 2.65931,-1.01446 c 0.55509,-0.41523 1.12592,-1.11842 1.12592,-1.38699 0,-0.0799 -0.14774,-0.33722 -0.32832,-0.57199 -0.83015,-1.07942 -1.88275,-2.63912 -1.94297,-2.87906 -0.0721,-0.28715 0.0125,-0.61392 0.15722,-0.60955 0.0497,10e-4 0.36469,0.35565 0.69997,0.787 0.82968,1.067369 1.85006,2.06138 1.97398,1.92296 0.0546,-0.061 0.19541,-0.34495 0.31305,-0.63116 0.17487,-0.42552 0.22222,-0.91842 0.25974,-2.70395 l 0.0458,-2.18357 -0.32909,0.0774 c -0.181,0.0425 -0.81508,0.309661 -1.40908,0.593511 -0.59398,0.28387 -1.18575,0.5161 -1.31504,0.5161 -0.21717,0 -0.22211,-0.0199 -0.0647,-0.26018 0.0937,-0.14311 0.71147,-0.65225 1.37287,-1.13141 1.05593,-0.76501 1.20702,-0.91715 1.23915,-1.24797 0.14879,-1.53174 -2.39172,-4.395601 -2.86458,-3.22917 -0.11667,0.28766 -0.3851,1.87803 -0.59544,3.52703 -0.12111,0.94957 -0.16257,1.06967 -0.36917,1.06967 -0.22857,0 -0.23128,-0.0451 -0.15214,-2.54408 0.0443,-1.39926 0.0393,-2.5436 -0.0111,-2.543 -0.0504,6e-4 -0.35686,0.15321 -0.68103,0.33914 -0.7392,0.42398 -1.61673,1.38525 -1.97613,2.16469 l -0.27521,0.59686 0.24884,0.44389 c 0.25886,0.4618 0.7799,1.16102 1.23556,1.65814 0.29974,0.32701 0.43147,0.72268 0.32924,0.98904 -0.0579,0.15079 -0.15003,0.12445 -0.56635,-0.16201 -0.27348,-0.18817 -0.72357,-0.53122 -1.00019,-0.76232 -0.8923,-0.7455 -1.04501,-0.43392 -1.04731,2.13688 -10e-4,1.57246 0.0365,2.02124 0.21366,2.52404 0.44109,1.25252 0.69119,1.20617 1.73788,-0.32203 0.39177,-0.572 0.76304,-1.07134 0.82504,-1.10966 0.3371,-0.20835 -0.0393,1.1211 -0.75811,2.67711 -0.22066,0.47773 -0.40122,1.00934 -0.40122,1.18136 0,0.58096 0.58872,1.22096 1.29909,1.41224 0.77311,0.208169 0.78143,0.18085 0.78983,-2.594431 0.007,-2.138599 0.0267,-2.399949 0.16194,-2.09628 0.085,0.19081 0.241,1.15352 0.34671,2.13935 0.29042,2.70853 0.27612,2.640241 0.56264,2.68692 0.36011,0.0586 0.52986,-0.0111 1.14897,-0.47454 z m -2.55442,-5.602311 c -0.37103,-0.39495 -0.35388,-1.32265 0.0321,-1.739179 0.34254,-0.369591 0.56246,-0.385081 0.88518,-0.0624 0.21177,0.21176 0.23769,0.34877 0.19822,1.04754 -0.0474,0.837829 -0.15662,1.01641 -0.62406,1.01985 -0.13208,9.7e-4 -0.35318,-0.11861 -0.49148,-0.26587 z M 308.08183,64.4552 c 0.43319,-4.00087 1.37782,-7.0122 3.08294,-9.82781 0.89175,-1.47254 2.59768,-3.33019 3.84848,-4.19075 0.68774,-0.47319 1.86492,-1.02117 2.63278,-1.22557 0.38834,-0.10334 1.21902,-0.16269 2.29102,-0.16356 1.46716,-0.001 1.81305,0.0367 2.71051,0.29687 1.68792,0.48935 2.70219,1.0814 4.03341,2.35439 1.84938,1.76848 2.65609,3.45552 3.29684,6.89464 0.18783,1.00818 0.17657,4.9422 -0.014,4.8793 -0.0914,-0.0301 -0.15527,-0.32103 -0.17366,-0.79021 -0.16418,-4.18842 -0.92818,-6.82163 -2.63851,-9.09402 -0.99055,-1.31604 -2.43382,-2.34649 -4.13603,-2.95296 -0.85832,-0.3058 -1.08107,-0.33642 -2.44758,-0.33639 -1.31099,4e-5 -1.62906,0.0399 -2.48626,0.31106 -1.03396,0.32717 -2.68369,1.22796 -3.655,1.99575 -0.72694,0.57461 -1.86063,1.94293 -2.84719,3.43647 -0.95104,1.43979 -1.25272,2.08863 -2.17759,4.68338 -0.0567,0.15902 -0.29032,1.01764 -0.51923,1.90807 -0.22889,0.89044 -0.46638,1.8141 -0.52774,2.05261 -0.17581,0.68333 -0.35574,0.531 -0.27321,-0.23127 z m 25.66922,0.23338 c 0.10486,-0.10264 1.19325,-0.333601 4.50996,-0.95688 3.08563,-0.57983 6.78445,-1.29659 7.4588,-1.44535 0.80412,-0.1774 7.19576,-1.44624 9.01993,-1.79059 1.48968,-0.28121 3.26486,-0.73255 4.10522,-1.04375 0.54408,-0.20149 0.8693,-0.43497 1.50672,-1.08163 0.67994,-0.68983 1.90467,-2.33456 1.90467,-2.55786 0,-0.0351 0.12222,-0.25795 0.27171,-0.4952 0.14943,-0.23724 0.49762,-0.97775 0.77373,-1.64557 l 0.50201,-1.21423 -0.007,-2.04986 c -0.004,-1.12742 0.0347,-2.02436 0.0851,-1.99319 0.43639,0.26971 0.55642,3.26272 0.18069,4.50562 -0.42996,1.42231 -0.55289,1.72204 -1.20108,2.92836 -0.52112,0.96984 -0.86189,1.4334 -1.58857,2.16105 -2.31514,2.31824 -3.94313,3.11967 -7.40097,3.64335 -2.13178,0.32284 -3.96285,0.62066 -6.36021,1.03445 -9.44327,1.62995 -14.0691,2.30269 -13.76118,2.00128 z m -66.60874,-1.730631 c -7.61882,-0.40643 -9.01402,-0.56883 -10.2343,-1.19137 -0.4917,-0.25085 -1.34342,-1.14478 -2.19766,-2.30658 -0.60939,-0.82878 -0.63477,-0.89257 -0.67542,-1.6975 -0.0356,-0.70416 0.004,-0.93662 0.24815,-1.47065 0.34428,-0.75199 0.70849,-1.01623 0.95409,-0.692189 0.0882,0.11639 0.16196,0.27656 0.16398,0.356079 0.006,0.234901 0.23675,0.16693 0.6424,-0.189239 0.61802,-0.54262 1.97023,-0.92156 3.58215,-1.00382 2.49722,-0.12751 12.96413,0.24604 16.59436,0.59214 1.98612,0.18936 3.3615,0.71256 5.1486,1.95854 0.59634,0.41577 1.11681,0.80861 1.1566,0.87298 0.0397,0.0643 0.10014,0.38891 0.13417,0.72119 0.0589,0.57511 0.037,0.63788 -0.45601,1.306539 -0.42874,0.58152 -1.97577,1.899501 -2.22964,1.899501 -0.0363,0 -0.28948,0.10181 -0.5627,0.2263 -0.61359,0.27953 -1.50485,0.42274 -3.59577,0.57781 -1.45925,0.1082 -6.9235,0.13361 -8.67301,0.0403 z m 11.5062,-0.656 c 0.90695,-0.29681 1.58545,-0.7076 2.2928,-1.388129 0.75834,-0.7296 0.94512,-1.071371 0.94512,-1.729321 0,-0.48279 -0.0449,-0.55433 -0.78309,-1.248879 -0.50677,-0.47678 -1.10013,-0.89055 -1.68152,-1.172551 -2.11562,-1.02624 -4.49302,-1.241729 -14.59973,-1.3234 l -7.29274,-0.0589 -0.62861,0.31677 c -1.02299,0.51552 -1.27637,0.74851 -1.62111,1.49072 -0.43829,0.94363 -0.36918,1.45702 0.33469,2.48654 0.96648,1.41359 1.37245,1.8189 2.08348,2.0801 1.78933,0.65732 4.25587,0.79877 13.49192,0.773711 6.22663,-0.017 6.87834,-0.0367 7.45879,-0.226641 z m 89.62482,-4.87181 c -0.008,-0.74922 0.45712,-2.70181 0.95197,-3.99732 0.88478,-2.31633 2.52245,-4.38387 4.07343,-5.1427 0.77657,-0.37994 2.07512,-0.51296 2.7897,-0.28577 1.53849,0.48914 2.82985,1.50633 3.48551,2.74549 0.70689,1.33595 1.30848,3.45211 1.02795,3.61584 -0.0545,0.0318 -0.26265,-0.43991 -0.46257,-1.04822 -0.39654,-1.20663 -0.89038,-2.10213 -1.58951,-2.88231 -0.24792,-0.27667 -0.45075,-0.53804 -0.45075,-0.58079 0,-0.0428 -0.37729,-0.22363 -0.83841,-0.40192 -0.4611,-0.1783 -0.90332,-0.37492 -0.98268,-0.43697 -0.0793,-0.0621 -0.50866,-0.1093 -0.95399,-0.10514 -0.69913,0.007 -0.91894,0.065 -1.60995,0.42816 -1.98908,1.04523 -3.5236,3.16669 -4.69737,6.49408 -0.22006,0.62381 -0.4001,1.21552 -0.4001,1.31489 0,0.0994 -0.0764,0.2817 -0.16978,0.40516 -0.16153,0.21356 -0.16996,0.2076 -0.17345,-0.1225 z m -80.89399,-1.08272 c -1.87836,-0.43684 -3.06447,-0.8582 -3.06447,-1.08865 0,-0.12723 1.31037,-0.0157 2.0237,0.17225 0.70087,0.1847 8.35503,0.25402 10.34911,0.0937 2.43943,-0.19608 3.94706,-0.57717 5.55142,-1.40326 0.90281,-0.46485 3.58485,-2.46699 3.58485,-2.67608 0,-0.12806 -0.3229,-0.10695 -3.00665,0.19674 -3.50076,0.39605 -8.5998,1.1706 -10.72949,1.62983 -3.28239,0.70778 -4.12674,0.85317 -5.95803,1.02597 -3.4105,0.32182 -3.90288,0.19322 -1.29452,-0.3381 0.82682,-0.16842 2.2523,-0.48706 3.16771,-0.70808 0.91542,-0.22103 2.1123,-0.49833 2.65973,-0.6162 0.54743,-0.11792 1.61979,-0.35036 2.38301,-0.51661 4.8765,-1.06227 10.14096,-1.80628 13.90866,-1.9657 1.46083,-0.0618 1.65915,-0.0482 1.72326,0.11889 0.14952,0.38964 -0.17533,0.82424 -1.35274,1.80977 -1.62221,1.35784 -2.674,2.05281 -4.33412,2.86375 -2.89545,1.41437 -4.15471,1.62154 -10.23416,1.68367 l -3.9896,0.0407 z m 45.33213,-2.13646 c -1.83369,-1.86902 -2.38469,-2.53068 -2.23341,-2.68196 0.0689,-0.0687 1.75413,-0.26759 5.29668,-0.62472 6.2013,-0.62516 17.65756,-1.39388 20.79315,-1.39523 0.79957,-3.3e-4 0.67996,0.18096 -0.17769,0.26937 -1.48697,0.153261 -4.44745,0.44435 -7.89503,0.776291 -2.00346,0.192889 -6.21856,0.63347 -9.36686,0.97905 -7.10488,0.779919 -6.59989,0.72025 -6.66741,0.787779 -0.10514,0.10514 1.04111,1.85335 2.01071,3.06659 0.27151,0.33974 0.49365,0.66498 0.49365,0.72275 0,0.31392 -0.47288,-0.0847 -2.25379,-1.89992 z m -77.30664,-0.0918 c 0,-1.27991 0.10529,-1.4869 1.32928,-2.61332 1.01379,-0.93296 1.56173,-1.29256 1.56173,-1.0249 0,0.36663 -0.46825,1.33167 -1.30541,2.69035 -1.51958,2.46624 -1.5856,2.5057 -1.5856,0.94787 z m 3.16683,-1.88569 c -0.0805,-0.20977 0.0205,-1.16033 0.19266,-1.812959 0.15795,-0.59883 0.54355,-0.92975 2.06214,-1.769701 3.36884,-1.863329 8.44112,-3.31472 14.17938,-4.05727 3.7615,-0.48674 9.41612,-0.875079 12.3735,-0.84976 1.69568,0.0146 1.66055,0.0207 -3.81613,0.67139 -6.11273,0.72628 -8.80915,1.1959 -11.98108,2.0867 -5.42432,1.52336 -8.74426,2.99054 -11.8187,5.22303 -0.95383,0.69262 -1.09759,0.75399 -1.19177,0.50857 z m 8.55126,-0.289969 c -2.10954,-0.0353 -3.87574,-0.104301 -3.92489,-0.15354 -0.15574,-0.15596 0.20338,-0.394191 1.75744,-1.16585 2.16549,-1.07526 5.39648,-2.42964 6.98591,-2.92837 2.58962,-0.81258 6.3851,-1.785601 7.80571,-2.00109 0.44521,-0.0675 1.19976,-0.19661 1.67678,-0.28685 2.49328,-0.47162 6.92605,-1.0205 9.82943,-1.217101 1.60783,-0.10889 15.58701,-0.16967 15.48468,-0.0674 -0.0272,0.0274 -1.21984,0.15919 -2.65009,0.2931 -5.93284,0.55548 -8.38287,1.040349 -14.74267,2.91759 -0.63603,0.187739 -1.36455,0.39753 -1.61896,0.466209 -0.44649,0.12056 -5.06963,1.83541 -6.01329,2.23051 -0.25441,0.10653 -1.07559,0.480331 -1.82485,0.83069 -0.74927,0.35037 -1.81568,0.76178 -2.36982,0.91424 -1.11664,0.30721 -1.5902,0.31485 -10.39538,0.1678 z m 22.69064,-1.27193 c 0.24278,-0.24154 4.17135,-1.81555 6.99046,-2.800781 2.28657,-0.79914 5.89421,-1.765419 7.45367,-1.99644 4.05945,-0.60134 7.74098,-0.891509 19.34593,-1.524799 0.77912,-0.0425 1.41659,-0.11709 1.41659,-0.16571 0,-0.13889 -0.86618,-0.21174 -4.20934,-0.35398 -1.71092,-0.0728 -3.24604,-0.17766 -3.41138,-0.23303 -0.33124,-0.11098 3.9991,-0.0581 11.81059,0.14418 2.71785,0.0704 5.11335,0.0957 5.32334,0.0564 0.47124,-0.0885 1.20884,-0.83225 3.32491,-3.35309 0.84814,-1.01039 2.18245,-2.49347 2.96512,-3.29575 0.78266,-0.80228 1.42395,-1.52373 1.42509,-1.60323 0.001,-0.09 -0.16172,-0.14531 -0.43159,-0.14656 -0.23852,-0.001 -2.38508,-0.10431 -4.77016,-0.22928 -3.14673,-0.16491 -5.94316,-0.22781 -10.19242,-0.22927 -10.69235,-0.004 -14.72125,0.42867 -19.00672,2.03963 -1.88577,0.70888 -2.72998,1.10143 -7.19874,3.34737 -4.05705,2.03902 -5.75732,2.82143 -6.13124,2.82143 -0.35347,0 -0.0744,-0.26244 0.68645,-0.6456 0.45569,-0.22949 1.58752,-0.83503 2.51516,-1.34564 9.53089,-5.24612 13.56526,-6.53061 23.60044,-7.51403 2.55497,-0.25038 3.21218,-0.26621 10.98582,-0.26478 7.49613,10e-4 8.55985,0.0254 11.39055,0.25661 6.9101,0.56452 10.90025,1.42432 16.66795,3.59161 2.68546,1.0091 4.4709,1.83578 8.83072,4.08869 1.23652,0.63897 2.09077,0.94503 4.63846,1.66191 2.27471,0.64006 5.17606,1.84669 4.77407,1.98547 -0.0703,0.0243 -0.74678,-0.0913 -1.50333,-0.25667 -3.20321,-0.70041 -3.58082,-0.74808 -5.92736,-0.74808 -2.42689,0 -4.34557,0.2481 -6.78091,0.87682 -0.63601,0.1642 -1.36455,0.35089 -1.61896,0.41489 -0.6299,0.15845 -1.54641,0.0515 -2.1358,-0.24914 -0.54219,-0.2766 -0.66206,-0.25232 -0.47548,0.0962 0.0687,0.128481 0.125,0.28404 0.125,0.3457 0,0.1772 -1.73486,0.238591 -11.96876,0.42347 -16.44099,0.297021 -24.68053,0.61633 -29.83516,1.156211 -0.89044,0.0932 -2.19139,0.22198 -2.89101,0.28602 -0.69962,0.064 -1.7664,0.19399 -2.37062,0.28877 -4.86016,0.76241 -5.78201,0.883319 -5.78201,0.75833 0,-0.0499 0.19514,-0.14242 0.43365,-0.20578 5.84634,-1.55335 9.54526,-2.24912 15.00432,-2.82239 0.69962,-0.0735 1.32148,-0.17742 1.3819,-0.23102 0.14904,-0.13223 0.0736,-0.12903 -3.17433,0.1332 -6.64557,0.53666 -8.34636,0.73767 -12.77823,1.5103 -3.29637,0.57466 -4.17664,0.76869 -9.94506,2.1921 -2.54408,0.62779 -5.34316,1.30061 -6.22021,1.49516 -1.60206,0.3554 -2.54196,0.45396 -2.33139,0.24445 z m 57.92994,-6.48191 c 9.35568,-0.17898 14.22144,-0.66597 16.99777,-1.70124 1.44818,-0.54001 1.79377,-0.747 1.79377,-1.07442 0,-0.2731 -0.25834,-0.47698 -1.38769,-1.09513 -2.58111,-1.4128 -4.33354,-2.16349 -7.11186,-3.04654 -3.96918,-1.26155 -6.92017,-1.81512 -9.65596,-1.8113 -1.71292,0.003 -1.82834,0.0174 -2.6019,0.338479 -0.94326,0.39151 -1.16666,0.52147 -2.02372,1.177281 -0.75127,0.57489 -1.4638,1.24879 -2.24612,2.124409 -0.31253,0.34981 -0.93958,1.026311 -1.39344,1.503321 -1.75948,1.84928 -2.9249,3.3479 -2.78258,3.57818 0.0936,0.1515 2.76261,0.15329 10.41173,0.007 z m -4.95306,-1.35648 c -0.2143,-0.34673 2.42522,-2.15623 3.34689,-2.29444 0.26964,-0.0404 0.94948,-0.0522 1.51077,-0.0261 0.91876,0.0426 1.16574,0.10861 2.47668,0.66249 1.49973,0.63356 2.07417,0.96805 1.92268,1.11954 -0.31202,0.312 -9.08171,0.82224 -9.25702,0.53859 z m -51.24806,-1.177161 c -0.56991,-0.0676 -0.58027,-0.076 -0.72313,-0.58894 -0.0797,-0.286209 -0.27999,-0.92721 -0.44506,-1.42445 -0.16507,-0.49725 -0.2704,-0.9338 -0.23408,-0.97012 0.0363,-0.0364 0.86104,0.19587 1.83274,0.51597 0.97168,0.32009 2.15699,0.69772 2.634,0.83915 0.47702,0.14145 0.96672,0.29327 1.08822,0.33738 0.1759,0.0639 -0.008,0.21434 -0.90272,0.73806 -1.08318,0.63416 -1.15153,0.6572 -1.89771,0.63969 -0.42573,-0.01 -1.03424,-0.049 -1.35226,-0.0867 z m 5.60856,-3.02351 c -0.60423,-0.11903 -1.82712,-0.35292 -2.71755,-0.51974 -2.22947,-0.41767 -4.47161,-0.86075 -4.70093,-0.92899 -0.12834,-0.0382 -0.37094,-0.60363 -0.73964,-1.72394 -0.49966,-1.51816 -0.57559,-1.672379 -0.8498,-1.72588 -0.61764,-0.12041 -6.96317,-0.58696 -9.75884,-0.71738 -0.94041,-0.0439 -1.73479,-0.12014 -1.76529,-0.16952 -0.0584,-0.0944 -1.64528,-4.648499 -2.0279,-5.819609 -0.12276,-0.37574 -0.19739,-0.70899 -0.16583,-0.74055 0.0804,-0.0804 3.10516,0.17173 5.37975,0.44852 4.95558,0.60304 6.24456,0.73911 6.24456,0.65919 0,-0.0296 -0.34146,-1.055901 -0.7588,-2.28059 -0.41734,-1.22469 -0.73082,-2.254691 -0.69661,-2.2889 0.0342,-0.0342 0.36266,0.0447 0.7299,0.17526 1.05067,0.37366 7.02591,2.28606 8.24214,2.63794 0.60421,0.17482 1.15743,0.37435 1.22935,0.44342 0.0719,0.069 0.27004,0.55099 0.44026,1.07094 0.17022,0.51994 0.37156,0.99486 0.44742,1.05538 0.0758,0.0606 0.68434,0.14417 1.35217,0.18589 0.66781,0.0417 2.64526,0.17728 4.39432,0.30124 1.74905,0.12389 3.79924,0.26536 4.55594,0.31425 1.03394,0.0668 1.40008,0.13195 1.47339,0.26234 0.1966,0.34965 1.83728,4.905479 1.80329,5.007429 -0.0193,0.0579 -0.34546,0.24022 -0.72483,0.40521 -0.65133,0.28326 -0.78321,0.29838 -2.36655,0.27138 -1.85575,-0.0317 -2.1488,-0.0928 -5.89765,-1.23141 -1.11303,-0.338039 -2.62214,-0.77951 -3.35355,-0.981029 -1.29177,-0.35589 -4.22208,-1.26579 -7.1697,-2.22628 -0.79503,-0.25906 -1.52355,-0.49551 -1.61896,-0.52547 -0.0958,-0.0301 -0.07,0.0229 0.0578,0.11862 0.25056,0.18747 4.67107,2.09082 7.59535,3.27034 2.20236,0.88833 2.27872,0.92804 2.2726,1.18196 -0.003,0.11125 0.29239,1.04869 0.6557,2.08334 0.73314,2.08776 0.73029,2.2329 -0.0435,2.21356 -0.23073,-0.006 -0.91385,-0.10791 -1.51806,-0.22692 z m -3.98959,-14.0593 c -0.57242,-0.22191 -1.79532,-0.68186 -2.71755,-1.0221 -0.92223,-0.34026 -2.32725,-0.87854 -3.12228,-1.19622 -0.79503,-0.31765 -1.87993,-0.74442 -2.41091,-0.94836 -0.89078,-0.34211 -0.98223,-0.4078 -1.18279,-0.84946 -0.33824,-0.7449 -0.30143,-0.88341 0.23471,-0.88341 0.4261,0 6.84323,0.4941 8.38934,0.64597 0.38162,0.0375 0.72673,0.10264 0.76693,0.14473 0.0401,0.0421 0.23838,0.623 0.44041,1.29082 0.20204,0.66781 0.49028,1.55247 0.64056,1.96587 0.44137,1.21427 0.45127,1.27316 0.21251,1.26384 -0.11556,-0.004 -0.67851,-0.18978 -1.25093,-0.41168 z"
               id="path12"
               sodipodi:nodetypes="cssccccccccccsscccsscssccsssssccccccssssssscsscscsssssssssscscssssssssssssscsssccssssssssscssscssscsscsssssssssscccsscccsssssssssccccsscssccssssssccsscssscssssssssscccscscssscccsssssssssssscsssssccssssscssccccsscsccsssscssscsssscssssssscsssssssscccsssssccsssscssscsssssssssssssscscsssscsssssssssssscccssssscssssscsssscssssscccscsssssssssssssssssscssssccssscscsssssscccssssscscssccscsssscsccsssscsssscsscssscsscsssccssssscsssssssssccsssssscssscssscssscssscsssscssscscsssscsssscscscccssssssscsccs" /><path
               style="fill:#e4002b;fill-opacity:1;stroke-width:1.38891"
               d="m 264.66461,45.298249 c -0.0745,-0.0897 -0.15859,-0.33691 -0.18694,-0.5493 -0.0283,-0.21238 -0.13016,-1.0106 -0.22626,-1.77382 -0.3223,-2.5597 -0.82185,-5.17413 -1.57986,-8.26829 -1.41109,-5.75999 -3.13149,-10.48418 -6.19055,-16.9991 -0.79139,-1.68544 -1.51841,-3.23898 -1.61558,-3.45229 -0.0972,-0.21331 -0.13242,-0.43209 -0.0783,-0.486169 0.10551,-0.105561 1.79898,-0.26555 4.95426,-0.468181 2.84658,-0.182809 13.29067,-0.0689 15.88831,0.173371 5.51144,0.513909 8.38538,0.985789 11.45722,1.881209 1.99043,0.58019 3.02939,1.03626 9.27842,4.07299 1.06254,0.51634 1.96403,0.93879 2.00331,0.93879 0.0393,0 1.06933,0.41823 2.28898,0.92938 3.00309,1.2586 2.85034,1.1987 4.41469,1.73125 7.63221,2.59825 12.20071,3.73159 19.31191,4.79084 3.35051,0.49908 3.5186,0.52188 6.07111,0.82373 1.36745,0.1617 3.39693,0.41783 4.50996,0.56917 1.11304,0.15132 2.96039,0.38549 4.10523,0.52035 10.69614,1.26009 15.64575,2.2178 19.35402,3.74485 1.00149,0.41241 1.01132,0.6286 0.0157,0.34565 -1.59151,-0.4523 -6.14136,-1.25055 -8.84647,-1.55207 -4.98136,-0.55524 -5.91253,-0.59583 -14.28156,-0.62247 -6.79999,-0.0217 -8.25059,-0.0554 -9.42467,-0.21986 -0.76323,-0.10681 -2.35039,-0.32412 -3.52702,-0.48282 -1.17666,-0.15868 -2.55566,-0.34499 -3.06447,-0.414 -0.50881,-0.069 -1.52357,-0.22851 -2.25498,-0.35441 -0.73143,-0.12597 -1.59005,-0.27357 -1.90807,-0.32816 -0.31801,-0.0546 -0.96849,-0.18349 -1.4455,-0.28643 -1.33421,-0.28797 -3.49261,-0.65276 -3.54603,-0.59935 -0.11958,0.11959 1.21038,0.49394 6.64347,1.86966 2.37141,0.60048 4.39457,1.13817 4.49591,1.19488 0.28847,0.16145 0.0769,0.2176 -1.34878,0.35809 -2.77955,0.27388 -6.85631,0.97094 -8.61519,1.47306 -0.76323,0.2179 -1.49176,0.42313 -1.61897,0.45611 -0.20547,0.0533 -0.30642,-0.14403 -0.90496,-1.76885 -0.93789,-2.54605 -1.2391,-3.31218 -1.35985,-3.45871 -0.0626,-0.076 -0.86314,-0.15768 -2.00421,-0.20446 -1.04495,-0.0428 -2.43731,-0.12514 -3.09412,-0.18279 -0.65683,-0.0578 -2.23498,-0.16777 -3.50703,-0.24459 -3.31218,-0.2 -3.05937,-0.11223 -3.43992,-1.19458 -0.1747,-0.49691 -0.28872,-0.95026 -0.25337,-1.00746 0.10237,-0.16565 0.32102,-0.12889 1.85798,0.3118 0.79745,0.22868 1.84885,0.50973 2.33644,0.62455 0.79681,0.18764 0.85815,0.18945 0.60601,0.0179 -0.37894,-0.25788 -1.23031,-0.60146 -3.36212,-1.35681 l -1.79242,-0.63511 -0.66128,-2.04831 c -0.36371,-1.12658 -0.69493,-2.1928 -0.73605,-2.36939 -0.10223,-0.43891 -0.30315,-0.51942 -1.50033,-0.6012 -1.13837,-0.0778 -4.51748,-0.35691 -6.40255,-0.5289 -0.66297,-0.0606 -1.41051,-0.11 -1.6612,-0.11 h -0.4558 l 0.0794,0.63602 c 0.0438,0.34982 0.0367,0.63575 -0.0156,0.63542 -0.0522,-3.2e-4 -1.05775,-0.3695 -2.23439,-0.82036 -4.76325,-1.8252 -12.22132,-4.3341 -13.87682,-4.66817 -0.36741,-0.0742 -0.38341,-0.0671 -0.17346,0.0772 0.12719,0.0874 0.54351,0.28179 0.92512,0.43205 0.38161,0.15026 1.00607,0.41428 1.38768,0.58673 2.25994,1.02121 3.80149,1.68754 5.49291,2.37427 1.04943,0.42608 2.11621,0.86772 2.37062,0.98143 0.68114,0.30444 3.13169,1.30735 3.93177,1.6091 0.38162,0.14393 1.23446,0.47749 1.89521,0.74125 l 1.20138,0.47956 0.73411,2.13934 c 0.40375,1.17664 0.73477,2.23041 0.73559,2.34172 0.001,0.25728 0.13501,0.26316 -3.35206,-0.14807 -1.62186,-0.19127 -3.46922,-0.39607 -4.10524,-0.45512 -0.63602,-0.059 -1.77037,-0.17003 -2.52079,-0.24662 -0.83313,-0.085 -1.40593,-0.0978 -1.47106,-0.0326 -0.12473,0.12473 -0.0997,0.20831 1.154,3.86012 0.51314,1.49465 1.00956,2.77477 1.10315,2.8447 0.0981,0.0733 1.0403,0.1609 2.22448,0.20684 1.12987,0.0439 2.65275,0.12791 3.38417,0.18691 5.99671,0.48353 5.95328,0.47875 6.10245,0.67068 0.18115,0.2331 0.9516,2.59032 0.9516,2.91151 0,0.12833 -0.039,0.23183 -0.0867,0.22992 -0.0478,-0.001 -0.76324,-0.18401 -1.59005,-0.40462 -3.39192,-0.90506 -5.52944,-1.44415 -5.56904,-1.40455 -0.13875,0.13875 3.48704,1.64957 6.15928,2.56662 l 1.63101,0.55972 0.30762,0.79068 c 0.16918,0.43487 0.36408,1.06296 0.43311,1.39577 0.20636,0.99509 0.30306,1.08103 1.30145,1.15653 1.76679,0.13362 1.51354,0.4969 -0.47483,0.68113 -0.66953,0.0621 -2.03005,0.0953 -3.02336,0.074 l -1.80601,-0.0388 -4.27868,-1.9225 c -4.50635,-2.02481 -10.23387,-4.78264 -12.3735,-5.95791 -0.69963,-0.3843 -1.89049,-1.0458 -2.64637,-1.47 -0.75588,-0.4242 -1.39546,-0.75015 -1.42128,-0.72433 -0.13995,0.13995 3.49281,3.0467 6.39233,5.11482 1.77592,1.26671 5.49586,3.6662 6.90893,4.4565 0.4867,0.2722 0.8849,0.55351 0.8849,0.62513 0,0.0832 -0.57457,0.18283 -1.59005,0.27579 -2.43723,0.22313 -6.63071,0.79604 -8.12372,1.10988 -1.12381,0.23622 -4.2143,1.04553 -4.85268,1.27077 -0.60779,0.21443 -0.6366,0.21486 -0.80513,0.0111 z m 14.5621,-19.56974 c -0.34981,-0.166419 -1.19535,-0.612639 -1.87897,-0.991569 -0.68362,-0.37893 -2.11466,-1.09323 -3.1801,-1.58732 -1.06544,-0.49409 -3.26413,-1.55028 -4.88599,-2.34705 -5.86014,-2.87899 -8.70463,-4.25122 -8.8123,-4.25122 -0.2149,0 0.59281,0.58491 3.15281,2.28316 3.38225,2.2437 5.22871,3.28438 7.62538,4.29769 0.47701,0.20169 0.95117,0.41263 1.05369,0.46876 0.57544,0.31512 4.0115,1.57218 5.11441,1.871079 0.70988,0.19238 1.4468,0.392161 1.63761,0.443961 0.70963,0.192609 0.78994,0.10583 0.17346,-0.187491 z m 20.19525,12.47646 c -0.0899,-0.17491 -0.41092,-1.04175 -0.7135,-1.92632 -0.5176,-1.513179 -0.53799,-1.617199 -0.34467,-1.75856 0.16879,-0.12347 0.2595,-0.12278 0.50816,0.003 0.16647,0.0846 0.9499,0.37517 1.74096,0.64588 2.08361,0.71306 2.95604,1.08237 2.95604,1.2513 0,0.0818 -0.18212,0.24762 -0.40474,0.36847 -0.57176,0.31042 -3.469,1.73379 -3.52908,1.73379 -0.0274,0 -0.12334,-0.1431 -0.21317,-0.31801 z m 6.48871,-2.99651 c 0.0795,-0.0321 0.2096,-0.0321 0.2891,0 0.0794,0.0321 0.0144,0.0583 -0.14455,0.0583 -0.15901,0 -0.22405,-0.0263 -0.14455,-0.0583 z m 33.21764,-7.10222 c -0.41341,-0.0529 -1.22,-0.15006 -1.79242,-0.215879 -0.57242,-0.0658 -2.13356,-0.25286 -3.4692,-0.41566 -1.33565,-0.16279 -3.23447,-0.37348 -4.2196,-0.46819 -2.70932,-0.26047 -2.56657,-0.3731 0.80821,-0.63766 1.79039,-0.14035 3.63429,-0.0747 4.85688,0.17299 0.73518,0.14893 4.91957,1.372579 5.37728,1.5725 0.29994,0.13097 -0.50713,0.1268 -1.56115,-0.008 z m -21.16215,-3.58235 c -2.91983,-0.19988 -6.13566,-0.81462 -9.13557,-1.74642 -1.47214,-0.45725 -2.77094,-0.89825 -3.31837,-1.12669 -0.30557,-0.12751 -1.17227,-0.46983 -1.92599,-0.7607 -1.13865,-0.43941 -3.5919,-1.57788 -3.76595,-1.74765 -0.17485,-0.17056 0.2975,-0.14122 1.8573,0.11542 2.46916,0.40617 5.09476,0.61566 10.27529,0.81984 4.19603,0.16538 6.27605,0.34657 7.34315,0.63965 0.25441,0.0699 1.45129,0.45693 2.65973,0.86011 2.42297,0.80841 3.27865,0.96655 6.88059,1.27158 3.03629,0.25713 5.8591,0.88013 5.8591,1.29309 0,0.14754 -0.0903,0.16935 -0.47219,0.11403 -1.13128,-0.16384 -4.39349,-0.20757 -6.02293,-0.0807 -4.7602,0.37051 -8.2009,0.48767 -10.23416,0.3485 z"
               id="path10" /><text
               xml:space="preserve"
               style="font-size:18.3444px;letter-spacing:0.79375px;writing-mode:lr-tb;direction:ltr;fill:#ffffff;stroke-width:0.264598"
               x="234.6725"
               y="92.586876"
               id="text2-3-1"
               transform="scale(1.0000569,0.9999431)"><tspan
                 id="tspan2-8-1"
                 x="234.6725"
                 y="92.586876"
                 style="font-style:normal;font-variant:normal;font-weight:bold;font-stretch:normal;font-size:18.3444px;font-family:Georgia;-inkscape-font-specification:'Georgia Bold';letter-spacing:0.79375px;fill:#ffffff;stroke-width:0.264598"
                 sodipodi:role="line">SWISS LUXURY</tspan></text><text
               xml:space="preserve"
               style="font-style:normal;font-variant:normal;font-weight:bold;font-stretch:normal;font-size:13.4056px;line-height:0;font-family:Georgia;-inkscape-font-specification:'Georgia Bold';letter-spacing:2.91042px;writing-mode:lr-tb;direction:ltr;fill:#ffffff;stroke-width:0.285484"
               x="257.08798"
               y="117.10947"
               id="text12"
               transform="scale(1.0789947,0.92678861)"><tspan
                 sodipodi:role="line"
                 id="tspan12"
                 x="257.08798"
                 y="117.10947"
                 style="font-style:normal;font-variant:normal;font-weight:bold;font-stretch:normal;font-size:13.4056px;line-height:0;font-family:Arial;-inkscape-font-specification:'Arial Bold';letter-spacing:2.91042px;fill:#ffffff;stroke-width:0.285484">GARAGE</tspan></text></g></g></g></g></g></svg>
